<?xml version="1.0" encoding="utf-8"?>
<!-- Generator: Adobe Illustrator 27.7.0, SVG Export Plug-In . SVG Version: 6.00 Build 0)  -->
<svg version="1.1" id="Warstwa_1" xmlns="http://www.w3.org/2000/svg" xmlns:xlink="http://www.w3.org/1999/xlink" x="0px" y="0px"
	 viewBox="0 0 279.3 54" style="enable-background:new 0 0 279.3 54;" xml:space="preserve">
<g>
	<g>
		<path d="M52.4,1.9h9v51.2h-9V1.9z"/>
	</g>
	<g>
		<path d="M87.3,45.8c3.5,0,6.3-1.5,7.9-3.5l7.3,4.2c-3.3,4.8-8.6,7.5-15.3,7.5C75.4,54,68,45.9,68,35.5S75.5,17,86.5,17
			c10.4,0,17.7,8.2,17.7,18.5c0,1.3-0.1,2.5-0.4,3.7H77.4C78.6,43.9,82.5,45.8,87.3,45.8z M95.1,32.3c-1.1-5-4.9-7.1-8.7-7.1
			c-4.8,0-8.1,2.6-9.2,7.1H95.1z"/>
	</g>
	<g>
		<path d="M108.4,35.5c0-10.4,8.2-18.5,18.5-18.5s18.6,8.1,18.6,18.5S137.2,54,126.9,54C116.6,54.1,108.4,46,108.4,35.5z
			 M136.4,35.5c0-5.7-4.1-9.7-9.5-9.7c-5.3,0-9.5,4-9.5,9.7s4.1,9.7,9.5,9.7C132.3,45.2,136.4,41.2,136.4,35.5z"/>
	</g>
	<g>
		<path d="M209.6,18v35h-9v-4.1c-2.5,3.2-6.3,5.1-11.4,5.1c-9.3,0-17-8.1-17-18.5s7.7-18.5,17-18.5c5.1,0,8.9,2,11.4,5.1V18
			C200.6,18,209.6,18,209.6,18z M200.6,35.5c0-5.9-4.1-9.9-9.7-9.9c-5.5,0-9.7,4-9.7,9.9s4.1,9.9,9.7,9.9
			C196.4,45.4,200.6,41.4,200.6,35.5z"/>
	</g>
</g>
<g>
	<path d="M52.4,1.9h9v51.2h-9V1.9z"/>
</g>
<g>
	<path d="M44.5,53.1H36v-5.5c-3.7,2.3-8,3.6-12.4,3.6C10.6,51.1,0,40.6,0,27.6S10.6,4,23.5,4c4.4,0,8.7,1.3,12.4,3.6V1.9h8.5v16
		L36.5,20c-2.7-4.6-7.7-7.5-13-7.5c-8.3,0-15,6.7-15,15s6.7,15,15,15c5.3,0,10.3-2.9,13-7.5l7.9,2.1L44.5,53.1L44.5,53.1z"/>
</g>
<path d="M169.2,17.7c-3.4,0.5-8.5,1.8-12.5,5.7c-3.6,3.5-5.5,8.3-5.5,14.1V53h9V37.5c0-3.3,0.9-5.8,2.7-7.6c1.8-1.8,4.3-2.6,6.3-3
	V17.7z"/>
<g>
	<path d="M248.9,10.6h-3.1v4.6h3.1c1.1,0,2.1-1,2.1-2.3C251,11.6,250.1,10.6,248.9,10.6z"/>
	<path d="M263.4,10.4c-2.8,0-5,2.1-5,5.1c0,2.9,2.2,5,5,5c2.8,0,5-2.1,5-5C268.4,12.5,266.2,10.4,263.4,10.4z"/>
	<path d="M235.5,10.6h-2.7v4.7h2.7c1.3,0,2.2-1,2.2-2.3C237.8,11.6,236.8,10.6,235.5,10.6z"/>
	<path d="M273.3,0h-46.2c-3.3,0-6,2.7-6,6v17.9c0,3.3,2.7,6,6,6h46.2c3.3,0,6-2.7,6-6V6C279.3,2.7,276.6,0,273.3,0z M235.5,18.1
		h-2.7v5.1h-3V7.8h5.7c3,0,5.3,2.3,5.3,5.2S238.5,18.1,235.5,18.1z M251.2,23.2l-3.1-5.3h-2.3v5.3h-3V7.8h6.2c2.8,0,5.1,2.3,5.1,5.1
		c0,1.9-1.2,3.7-3,4.5l3.4,5.8H251.2z M263.4,23.5c-4.4,0-8-3.5-8-8c0-4.5,3.5-8,8-8c4.4,0,8,3.5,8,8
		C271.4,20,267.8,23.5,263.4,23.5z"/>
</g>
</svg>
