<?xml version="1.0" encoding="utf-8"?>
<!-- Generator: Adobe Illustrator 27.3.1, SVG Export Plug-In . SVG Version: 6.00 Build 0)  -->
<svg version="1.1" id="Warstwa_1" xmlns="http://www.w3.org/2000/svg" xmlns:xlink="http://www.w3.org/1999/xlink" x="0px" y="0px"
	 viewBox="0 0 209.6 52.2" style="enable-background:new 0 0 209.6 52.2;" fill="#ffffff" xml:space="preserve">
<g>
	<g>
		<path d="M52.4,0h9v51.2h-9V0z"/>
	</g>
	<g>
		<path d="M87.3,43.9c3.5,0,6.3-1.5,7.9-3.5l7.3,4.2c-3.3,4.8-8.6,7.5-15.3,7.5c-11.8,0-19.2-8.1-19.2-18.5
			c0-10.4,7.5-18.5,18.5-18.5c10.4,0,17.7,8.2,17.7,18.5c0,1.3-0.1,2.5-0.4,3.7H77.4C78.6,42,82.5,43.9,87.3,43.9z M95.1,30.4
			c-1.1-5-4.9-7.1-8.7-7.1c-4.8,0-8.1,2.6-9.2,7.1H95.1z"/>
	</g>
	<g>
		<path d="M108.4,33.6c0-10.4,8.2-18.5,18.5-18.5c10.3,0,18.6,8.1,18.6,18.5c0,10.4-8.3,18.5-18.6,18.5
			C116.6,52.2,108.4,44.1,108.4,33.6z M136.4,33.6c0-5.7-4.1-9.7-9.5-9.7c-5.3,0-9.5,4-9.5,9.7c0,5.7,4.1,9.7,9.5,9.7
			C132.3,43.3,136.4,39.3,136.4,33.6z"/>
	</g>
	<g>
		<path d="M209.6,16.1v35h-9V47c-2.5,3.2-6.3,5.1-11.4,5.1c-9.3,0-17-8.1-17-18.5c0-10.4,7.7-18.5,17-18.5c5.1,0,8.9,2,11.4,5.1
			v-4.1H209.6z M200.6,33.6c0-5.9-4.1-9.9-9.7-9.9c-5.5,0-9.7,4-9.7,9.9c0,5.9,4.1,9.9,9.7,9.9C196.4,43.5,200.6,39.5,200.6,33.6z"
			/>
	</g>
</g>
<g>
	<path d="M52.4,0h9v51.2h-9V0z"/>
</g>
<g>
	<path d="M44.5,51.2H36v-5.5c-3.7,2.3-8,3.6-12.4,3.6C10.6,49.2,0,38.7,0,25.7S10.6,2.1,23.5,2.1c4.4,0,8.7,1.3,12.4,3.6V0h8.5V16
		l-7.9,2.1c-2.7-4.6-7.7-7.5-13-7.5c-8.3,0-15,6.7-15,15s6.7,15,15,15c5.3,0,10.3-2.9,13-7.5l7.9,2.1V51.2z"/>
</g>
<path d="M169.2,15.8c-3.4,0.5-8.5,1.8-12.5,5.7c-3.6,3.5-5.5,8.3-5.5,14.1v15.5h9V35.6c0-3.3,0.9-5.8,2.7-7.6c1.8-1.8,4.3-2.6,6.3-3
	V15.8z"/>
</svg>
