<?xml version="1.0" encoding="UTF-8"?>
<svg xmlns="http://www.w3.org/2000/svg" baseProfile="tiny" version="1.2" viewBox="0 0 237 93.9">
  <!-- Generator: Adobe Illustrator 28.6.0, SVG Export Plug-In . SVG Version: 1.2.0 Build 709)  -->
  <g>
    <g id="Warstwa_1">
      <g>
        <path d="M107,90.1c.5,0,.9-.1,1.3-.3.9-.5,1.3-1.7.8-2.6-.4-.7-1.3-1-1.8-1.1-.9-.2-1.8-.4-2.7-.6-1-.2-2.1-.4-3.1-.7-.7-.2-1.3-.5-1.9-.9-1.5-1-2.2-2.4-2.3-4.1,0-.6,0-1.3.1-1.9.3-1.4,1-2.5,2.3-3.2.7-.4,1.5-.7,2.3-.9.5-.1,1.1-.1,1.6-.1h5.5c.8.2,1.3,1,1.2,1.9s-.7,1.5-1.5,1.6h-4.7c-.5,0-.9,0-1.5.1-.4,0-1,.2-1.3.4-.5.3-.8.7-.8,1.2-.1.4,0,.8.1,1.3.1.3.4.6.7.8.5.2.7.3,1.2.5.9.3,1.9.4,2.8.6s1.8.4,2.8.6c1,.3,2,.8,2.7,1.5,1,1,1.6,2.3,1.6,3.7s0,1.1,0,1.6c-.3,1.4-1,2.5-2.2,3.2-.8.5-1.8.8-2.8,1s-1.1.1-1.7.1h-6c-1.3,0-2.2-1.4-1.5-2.7.3-.5.7-.8,1.3-.8.3-.1,6.4-.1,7.6-.2Z" fill="#010101"/>
        <path d="M213.1,90.1c.5,0,.9-.1,1.3-.3.9-.5,1.3-1.7.8-2.6-.4-.7-1.3-1-1.8-1.1-.9-.2-1.8-.4-2.7-.6-1-.2-2.1-.4-3.1-.7-.7-.2-1.3-.5-1.9-.9-1.5-1-2.2-2.4-2.3-4.1,0-.6,0-1.3.1-1.9.3-1.4,1.1-2.5,2.3-3.2.7-.4,1.5-.7,2.3-.9.5-.1,1.1-.2,1.6-.2h5.5c.8.2,1.3,1,1.2,1.9s-.7,1.5-1.5,1.6h-4.7c-.5,0-.9,0-1.5.1-.4,0-1,.2-1.3.4-.5.3-.8.7-.8,1.2-.1.4,0,.8.1,1.3.1.3.4.6.7.8.5.2.7.3,1.2.5.9.3,1.9.4,2.8.6.9.2,1.8.4,2.8.6,1,.3,2,.8,2.7,1.5,1,1,1.6,2.3,1.6,3.7s0,1.1-.1,1.6c-.3,1.4-1,2.5-2.2,3.2-.8.5-1.8.8-2.8,1s-1.1.1-1.7.1h-6c-1.3,0-2.2-1.4-1.5-2.7.3-.5.7-.8,1.3-.8s6.3,0,7.6-.1Z" fill="#010101"/>
        <path d="M155.8,91.6v.7c0,.8-.8,1.4-1.6,1.5-.8,0-1.6-.5-1.8-1.3,0-.3,0-.5,0-.8v-9.3c0-.4,0-.8,0-1.3-.5-2.1-1.8-3.4-4-3.9-1.8-.4-3.4.1-4.8,1.3-1,.9-1.5,2.1-1.5,3.5v10c0,.9-.8,1.6-1.7,1.6s-1.7-.7-1.8-1.6v-9.9c0-4.5,3.3-7.9,7.3-8.5,3.2-.5,6,.5,8.1,3,1.3,1.5,1.9,3.3,1.9,5.3,0,1.7,0,8.1,0,9.7Z" fill="#010101"/>
        <path d="M173.6,73.7c.3,0,.5,0,.8.2.7.3,1.1,1,1,1.8s-.8,1.4-1.5,1.5h-4.5c-1.4,0-2.6.5-3.6,1.4-1,1-1.5,2.1-1.6,3.5v3.5c0,2.8,2.3,4.5,4.3,4.8.4,0,.8.1,1.2.1h4.1c.9,0,1.6.8,1.6,1.7s-.7,1.6-1.5,1.7h-4.7c-2.8-.1-5-1.2-6.8-3.3-1.2-1.5-1.7-3.1-1.8-5v-3.2c0-3.7,2.3-6.8,5.6-8,.9-.3,1.9-.5,2.9-.5.7-.2,3.7-.2,4.5-.2Z" fill="#010101"/>
        <path d="M235.1,73.7c.3,0,.6,0,.9.2.7.4,1,1.1.9,1.9-.1.7-.8,1.2-1.5,1.3h-4.5c-1.3,0-2.4.4-3.4,1.2-1.2,1-1.8,2.2-1.8,3.8v3.3c0,2.3,1.7,4.4,4.3,4.8.4.1.8.1,1.2.1h4.2c.9.1,1.5.8,1.5,1.7s-.7,1.6-1.5,1.7h-4.9c-3.2-.1-5.6-1.5-7.3-4.3-.8-1.2-1.1-2.5-1.1-4v-3.3c0-3.1,1.5-5.5,4.1-7.1,1.3-.8,2.8-1.3,4.4-1.3.7,0,3.6,0,4.5,0Z" fill="#010101"/>
        <path d="M125.2,81.2s7.2-7,7.4-7.1c.6-.5,1.3-.5,2-.2.7.4.9,1,.8,1.7,0,.3-.2.6-.4.9,0,.1-7.5,7.2-7.6,7.3-.3.3-.5.7-.5,1.1v7.2c0,.7-.4,1.2-1.1,1.5s-1.3.2-1.9-.3c-.3-.2-.4-.5-.5-.8v-7.3c0-.7-.2-1.1-.7-1.6-2.3-2.1-7.2-6.9-7.4-7-.6-.6-.6-1.6,0-2.3s1.5-.8,2.3-.4c.6.3,7.7,7.3,7.7,7.3Z" fill="#010101"/>
        <path d="M180.4,81.2c0-.8,0-1.5.3-2.3.5-1.9,1.6-3.3,3.3-4.1,1-.5,2.1-.8,3.3-1,1.2-.2,2.3-.1,3.6-.1s1,.3,1.3.7c.5.6.5,1.4,0,2-.4.5-.9.7-1.5.7h-1.9c-.7,0-1.4.1-2.1.4-.4.1-.7.3-1,.5-1,.6-1.5,1.5-1.7,2.6v11.8c0,.5-.3.8-.8,1.1s-1,.3-1.6.2c-.6-.2-1-.7-1-1.3v-.6c-.2-2-.2-9-.2-10.6Z" fill="#010101"/>
        <path d="M194.3,81.8c0-.3,0-.5,0-.8.2-.8.9-1.3,1.8-1.2.8,0,1.5.6,1.6,1.4v10.8c0,.7-.4,1.2-1,1.5-.7.3-1.3.2-1.9-.2-.4-.3-.5-.7-.6-1.1v-10.4Z" fill="#010101"/>
        <path d="M235.3,81.8c.7,0,1.2.4,1.4,1,.5,1-.3,2.2-1.4,2.3h-2.9c-.3,0-.6-.1-.9-.3-.7-.4-1-1-.8-1.8.1-.8.7-1.3,1.5-1.4h.5c.4.2,2.1.2,2.6.2Z" fill="#010101"/>
        <path d="M173.6,81.8c.3,0,.5,0,.7.1.8.3,1.2,1,1.1,1.8s-.7,1.4-1.5,1.5h-2.8c-.2,0-.5,0-.6-.1-.8-.3-1.3-1-1.2-1.8,0-.8.8-1.4,1.5-1.5h2.8Z" fill="#010101"/>
        <g>
          <path d="M74,85.8v1.5h-1.5v-13.9h1.5v6.1c.5-.9,1.8-1.7,3.2-1.7,2.5,0,4.3,1.8,4.3,4.7h0c0,3-1.7,5-4.3,5s-2.6-.8-3.2-1.7ZM80,82.7h0c0-2.5-1.3-3.7-2.9-3.7s-3.1,1.2-3.1,3.6h0c0,2.5,1.3,3.6,3.1,3.6s2.9-1.2,2.9-3.5Z" fill="#010101"/>
          <path d="M86.3,86.3l-3.7-8.4h1.6l2.9,6.8,2.6-6.8h1.5l-5.2,12.7h-1.5l1.8-4.3Z" fill="#010101"/>
        </g>
      </g>
      <g>
        <path d="M59.2,0h10.2v57.9h-10.2V0Z" fill="#010101"/>
        <path d="M98.7,49.6c4,0,7.1-1.7,8.9-4l8.3,4.7c-3.7,5.4-9.7,8.5-17.3,8.5-13.3,0-21.7-9.2-21.7-20.9s8.5-20.9,20.9-20.9,20,9.3,20,20.9-.1,2.8-.5,4.2h-29.8c1.4,5.3,5.8,7.5,11.2,7.5ZM107.5,34.4c-1.2-5.7-5.5-8-9.8-8s-9.2,2.9-10.4,8h20.2Z" fill="#010101"/>
        <path d="M122.5,38c0-11.8,9.3-20.9,20.9-20.9s21,9.2,21,20.9-9.4,20.9-21,20.9c-11.6.1-20.9-9-20.9-20.9ZM154.2,38c0-6.4-4.6-11-10.7-11s-10.7,4.5-10.7,11,4.6,11,10.7,11,10.7-4.5,10.7-11Z" fill="#010101"/>
        <path d="M237,18.2v39.6h-10.2v-4.6c-2.8,3.6-7.1,5.8-12.9,5.8-10.5,0-19.2-9.2-19.2-20.9s8.7-20.9,19.2-20.9,10.1,2.3,12.9,5.8v-4.6s10.2,0,10.2,0ZM226.8,38c0-6.7-4.6-11.2-11-11.2s-11,4.5-11,11.2,4.6,11.2,11,11.2,11-4.5,11-11.2Z" fill="#010101"/>
        <path d="M59.2,0h10.2v57.9h-10.2V0Z" fill="#010101"/>
        <path d="M50.3,57.9h-9.6v-6.2c-4.2,2.6-9,4.1-14,4.1-14.7-.1-26.7-12-26.7-26.7S12,2.4,26.6,2.4s9.8,1.5,14,4.1V0h9.6v18.1l-8.9,2.4c-3.1-5.2-8.7-8.5-14.7-8.5-9.4,0-17,7.6-17,17s7.6,17,17,17,11.6-3.3,14.7-8.5l8.9,2.4v18.1h.1Z" fill="#010101"/>
        <path d="M191.3,17.9c-3.8.6-9.6,2-14.1,6.4-4.1,4-6.2,9.4-6.2,15.9v17.5h10.2v-17.5c0-3.7,1-6.6,3.1-8.6,2-2,4.9-2.9,7.1-3.4v-10.4Z" fill="#010101"/>
      </g>
    </g>
  </g>
</svg>